<mxfile host="app.diagrams.net" modified="2023-12-25T22:15:20.818Z" agent="Mozilla/5.0 (Windows NT 10.0; Win64; x64) AppleWebKit/537.36 (KHTML, like Gecko) Chrome/120.0.0.0 Safari/537.36" etag="drzE_CgWqeGLVLwE3Uv3" version="22.1.11" type="device">
  <diagram name="Page-1" id="eGDjCs74CiX1uYYfahEV">
    <mxGraphModel dx="1400" dy="2953" grid="1" gridSize="10" guides="1" tooltips="1" connect="1" arrows="1" fold="1" page="1" pageScale="1" pageWidth="850" pageHeight="1100" math="0" shadow="0">
      <root>
        <mxCell id="0" />
        <mxCell id="1" parent="0" />
        <mxCell id="B_eZrr6Voj85S-G9qspt-1" value="&lt;font style=&quot;font-size: 24px;&quot;&gt;&lt;b&gt;user&lt;/b&gt;&lt;/font&gt;" style="shape=umlActor;verticalLabelPosition=bottom;verticalAlign=top;html=1;" parent="1" vertex="1">
          <mxGeometry x="120" y="-2050" width="70" height="110" as="geometry" />
        </mxCell>
        <mxCell id="B_eZrr6Voj85S-G9qspt-2" value="&lt;b&gt;&lt;font style=&quot;font-size: 24px;&quot;&gt;login and logout case sequence diagram for OOSE project&amp;nbsp;&lt;/font&gt;&lt;/b&gt;" style="text;html=1;strokeColor=none;fillColor=none;align=center;verticalAlign=middle;whiteSpace=wrap;rounded=0;" parent="1" vertex="1">
          <mxGeometry x="40" y="-2150" width="730" height="30" as="geometry" />
        </mxCell>
        <mxCell id="sM-v2A3wkZq7hyRdQ6Ps-2" value="&lt;div&gt;&lt;font style=&quot;font-size: 24px;&quot;&gt;&lt;b&gt;: Account&amp;nbsp;&lt;/b&gt;&lt;/font&gt;&lt;/div&gt;" style="shape=umlLifeline;perimeter=lifelinePerimeter;whiteSpace=wrap;html=1;container=1;dropTarget=0;collapsible=0;recursiveResize=0;outlineConnect=0;portConstraint=eastwest;newEdgeStyle={&quot;curved&quot;:0,&quot;rounded&quot;:0};size=60;" vertex="1" parent="1">
          <mxGeometry x="256" y="-2030" width="170" height="560" as="geometry" />
        </mxCell>
        <mxCell id="sM-v2A3wkZq7hyRdQ6Ps-4" value="" style="html=1;points=[[0,0,0,0,5],[0,1,0,0,-5],[1,0,0,0,5],[1,1,0,0,-5]];perimeter=orthogonalPerimeter;outlineConnect=0;targetShapes=umlLifeline;portConstraint=eastwest;newEdgeStyle={&quot;curved&quot;:0,&quot;rounded&quot;:0};" vertex="1" parent="sM-v2A3wkZq7hyRdQ6Ps-2">
          <mxGeometry x="80" y="153" width="10" height="207" as="geometry" />
        </mxCell>
        <mxCell id="sM-v2A3wkZq7hyRdQ6Ps-21" value="" style="html=1;points=[[0,0,0,0,5],[0,1,0,0,-5],[1,0,0,0,5],[1,1,0,0,-5]];perimeter=orthogonalPerimeter;outlineConnect=0;targetShapes=umlLifeline;portConstraint=eastwest;newEdgeStyle={&quot;curved&quot;:0,&quot;rounded&quot;:0};" vertex="1" parent="sM-v2A3wkZq7hyRdQ6Ps-2">
          <mxGeometry x="81" y="405" width="10" height="45" as="geometry" />
        </mxCell>
        <mxCell id="sM-v2A3wkZq7hyRdQ6Ps-3" value="&lt;div&gt;&lt;b&gt;&lt;font style=&quot;font-size: 24px;&quot;&gt;:&lt;/font&gt;&lt;/b&gt; &lt;b&gt;&lt;font style=&quot;font-size: 24px;&quot;&gt;system&lt;br/&gt;&lt;/font&gt;&lt;/b&gt;&lt;/div&gt;&lt;div&gt;&lt;span style=&quot;font-size: 17.3184pt; font-family: Arial-BoldMT; font-weight: bold;&quot;&gt;(booksminia)&lt;/span&gt;&lt;/div&gt;" style="shape=umlLifeline;perimeter=lifelinePerimeter;whiteSpace=wrap;html=1;container=1;dropTarget=0;collapsible=0;recursiveResize=0;outlineConnect=0;portConstraint=eastwest;newEdgeStyle={&quot;curved&quot;:0,&quot;rounded&quot;:0};size=60;" vertex="1" parent="1">
          <mxGeometry x="529" y="-2030" width="190" height="520" as="geometry" />
        </mxCell>
        <mxCell id="sM-v2A3wkZq7hyRdQ6Ps-6" value="" style="html=1;points=[[0,0,0,0,5],[0,1,0,0,-5],[1,0,0,0,5],[1,1,0,0,-5]];perimeter=orthogonalPerimeter;outlineConnect=0;targetShapes=umlLifeline;portConstraint=eastwest;newEdgeStyle={&quot;curved&quot;:0,&quot;rounded&quot;:0};" vertex="1" parent="sM-v2A3wkZq7hyRdQ6Ps-3">
          <mxGeometry x="90" y="175" width="10" height="145" as="geometry" />
        </mxCell>
        <mxCell id="sM-v2A3wkZq7hyRdQ6Ps-24" value="" style="html=1;points=[[0,0,0,0,5],[0,1,0,0,-5],[1,0,0,0,5],[1,1,0,0,-5]];perimeter=orthogonalPerimeter;outlineConnect=0;targetShapes=umlLifeline;portConstraint=eastwest;newEdgeStyle={&quot;curved&quot;:0,&quot;rounded&quot;:0};" vertex="1" parent="sM-v2A3wkZq7hyRdQ6Ps-3">
          <mxGeometry x="90" y="410" width="10" height="45" as="geometry" />
        </mxCell>
        <mxCell id="sM-v2A3wkZq7hyRdQ6Ps-5" value="" style="html=1;points=[[0,0,0,0,5],[0,1,0,0,-5],[1,0,0,0,5],[1,1,0,0,-5]];perimeter=orthogonalPerimeter;outlineConnect=0;targetShapes=umlLifeline;portConstraint=eastwest;newEdgeStyle={&quot;curved&quot;:0,&quot;rounded&quot;:0};" vertex="1" parent="1">
          <mxGeometry x="150" y="-1900" width="10" height="480" as="geometry" />
        </mxCell>
        <mxCell id="sM-v2A3wkZq7hyRdQ6Ps-7" value="" style="endArrow=open;endFill=1;endSize=12;html=1;rounded=0;" edge="1" parent="1">
          <mxGeometry width="160" relative="1" as="geometry">
            <mxPoint x="160" y="-1869" as="sourcePoint" />
            <mxPoint x="336" y="-1869" as="targetPoint" />
          </mxGeometry>
        </mxCell>
        <mxCell id="sM-v2A3wkZq7hyRdQ6Ps-9" value="&lt;span style=&quot;border-color: var(--border-color); background-color: rgb(251, 251, 251); font-family: &amp;quot;Times New Roman&amp;quot;; color: rgb(55, 65, 81); font-weight: bold; font-size: 16pt;&quot;&gt;&lt;/span&gt;&lt;b style=&quot;border-color: var(--border-color); font-size: 12px; background-color: rgb(251, 251, 251);&quot;&gt;&lt;span style=&quot;border-color: var(--border-color); font-family: &amp;quot;Times New Roman&amp;quot;; letter-spacing: 0pt; font-size: 16pt;&quot;&gt;&amp;nbsp;&lt;/span&gt;&lt;/b&gt;&lt;b style=&quot;border-color: var(--border-color); font-size: 12px; background-color: rgb(251, 251, 251);&quot;&gt;&lt;span style=&quot;border-color: var(--border-color); font-family: &amp;quot;Times New Roman&amp;quot;; letter-spacing: 0pt; font-size: 16pt;&quot;&gt;authenticate():&lt;/span&gt;&lt;/b&gt;" style="edgeLabel;html=1;align=center;verticalAlign=middle;resizable=0;points=[];" vertex="1" connectable="0" parent="sM-v2A3wkZq7hyRdQ6Ps-7">
          <mxGeometry x="-0.021" y="-1" relative="1" as="geometry">
            <mxPoint x="-6" y="-22" as="offset" />
          </mxGeometry>
        </mxCell>
        <mxCell id="sM-v2A3wkZq7hyRdQ6Ps-10" value="" style="endArrow=open;endFill=1;endSize=12;html=1;rounded=0;" edge="1" parent="1" target="sM-v2A3wkZq7hyRdQ6Ps-3">
          <mxGeometry width="160" relative="1" as="geometry">
            <mxPoint x="346" y="-1848" as="sourcePoint" />
            <mxPoint x="566" y="-1848" as="targetPoint" />
          </mxGeometry>
        </mxCell>
        <mxCell id="sM-v2A3wkZq7hyRdQ6Ps-11" value="&lt;div&gt;&lt;b&gt;&lt;font style=&quot;font-size: 18px;&quot;&gt;verify account data (data):&lt;/font&gt;&lt;/b&gt;&lt;/div&gt;" style="edgeLabel;html=1;align=center;verticalAlign=middle;resizable=0;points=[];" vertex="1" connectable="0" parent="sM-v2A3wkZq7hyRdQ6Ps-10">
          <mxGeometry x="-0.021" y="-1" relative="1" as="geometry">
            <mxPoint x="-1" y="-22" as="offset" />
          </mxGeometry>
        </mxCell>
        <mxCell id="sM-v2A3wkZq7hyRdQ6Ps-12" value="&lt;font style=&quot;font-size: 18px;&quot;&gt;&lt;b&gt;alt&lt;/b&gt;&lt;/font&gt;" style="shape=umlFrame;whiteSpace=wrap;html=1;pointerEvents=0;" vertex="1" parent="1">
          <mxGeometry x="80" y="-1834" width="660" height="140" as="geometry" />
        </mxCell>
        <mxCell id="sM-v2A3wkZq7hyRdQ6Ps-13" value="" style="endArrow=none;dashed=1;html=1;rounded=0;exitX=0;exitY=0.511;exitDx=0;exitDy=0;exitPerimeter=0;entryX=1.002;entryY=0.511;entryDx=0;entryDy=0;entryPerimeter=0;" edge="1" parent="1" source="sM-v2A3wkZq7hyRdQ6Ps-12" target="sM-v2A3wkZq7hyRdQ6Ps-12">
          <mxGeometry width="50" height="50" relative="1" as="geometry">
            <mxPoint x="40" y="-1590" as="sourcePoint" />
            <mxPoint x="640" y="-1762" as="targetPoint" />
          </mxGeometry>
        </mxCell>
        <mxCell id="sM-v2A3wkZq7hyRdQ6Ps-14" value="" style="endArrow=open;endFill=1;endSize=12;html=1;rounded=0;" edge="1" parent="1" target="sM-v2A3wkZq7hyRdQ6Ps-6">
          <mxGeometry width="160" relative="1" as="geometry">
            <mxPoint x="160" y="-1800" as="sourcePoint" />
            <mxPoint x="320" y="-1800" as="targetPoint" />
          </mxGeometry>
        </mxCell>
        <mxCell id="sM-v2A3wkZq7hyRdQ6Ps-15" value="&lt;b style=&quot;border-color: var(--border-color); font-size: 12px; background-color: rgb(251, 251, 251);&quot;&gt;&amp;nbsp;&lt;/b&gt;&lt;b style=&quot;border-color: var(--border-color); font-size: 12px; background-color: rgb(251, 251, 251);&quot;&gt;&lt;span style=&quot;border-color: var(--border-color); font-family: &amp;quot;Times New Roman&amp;quot;; letter-spacing: 0pt; font-size: 16pt;&quot;&gt;authenticate():&lt;/span&gt;&lt;/b&gt;" style="edgeLabel;html=1;align=center;verticalAlign=middle;resizable=0;points=[];" vertex="1" connectable="0" parent="sM-v2A3wkZq7hyRdQ6Ps-14">
          <mxGeometry x="-0.0164" y="1" relative="1" as="geometry">
            <mxPoint x="-118" y="-14" as="offset" />
          </mxGeometry>
        </mxCell>
        <mxCell id="sM-v2A3wkZq7hyRdQ6Ps-16" value="&lt;b style=&quot;border-color: var(--border-color);&quot;&gt;&lt;font style=&quot;border-color: var(--border-color); font-size: 18px;&quot;&gt;verify account data (data): NO&lt;/font&gt;&lt;/b&gt;" style="endArrow=open;endSize=12;dashed=1;html=1;rounded=0;" edge="1" parent="1">
          <mxGeometry x="-0.045" y="-19" width="160" relative="1" as="geometry">
            <mxPoint x="619" y="-1729" as="sourcePoint" />
            <mxPoint x="340.32352941176464" y="-1729" as="targetPoint" />
            <mxPoint as="offset" />
          </mxGeometry>
        </mxCell>
        <mxCell id="sM-v2A3wkZq7hyRdQ6Ps-17" value="" style="endArrow=open;endSize=12;dashed=1;html=1;rounded=0;" edge="1" parent="1">
          <mxGeometry x="-0.0256" y="-21" width="160" relative="1" as="geometry">
            <mxPoint x="336" y="-1713" as="sourcePoint" />
            <mxPoint x="160" y="-1713" as="targetPoint" />
            <mxPoint x="-1" as="offset" />
          </mxGeometry>
        </mxCell>
        <mxCell id="sM-v2A3wkZq7hyRdQ6Ps-18" value="&lt;b style=&quot;border-color: var(--border-color); color: rgb(0, 0, 0); font-family: Helvetica; font-style: normal; font-variant-ligatures: normal; font-variant-caps: normal; letter-spacing: normal; orphans: 2; text-align: center; text-indent: 0px; text-transform: none; widows: 2; word-spacing: 0px; -webkit-text-stroke-width: 0px; text-decoration-thickness: initial; text-decoration-style: initial; text-decoration-color: initial; font-size: 24px;&quot;&gt;register():&lt;/b&gt;" style="edgeLabel;html=1;align=center;verticalAlign=middle;resizable=0;points=[];" vertex="1" connectable="0" parent="sM-v2A3wkZq7hyRdQ6Ps-17">
          <mxGeometry x="0.0101" y="-28" relative="1" as="geometry">
            <mxPoint x="4" y="7" as="offset" />
          </mxGeometry>
        </mxCell>
        <mxCell id="sM-v2A3wkZq7hyRdQ6Ps-19" value="" style="endArrow=open;endFill=1;endSize=12;html=1;rounded=0;" edge="1" parent="1">
          <mxGeometry width="160" relative="1" as="geometry">
            <mxPoint x="160" y="-1617" as="sourcePoint" />
            <mxPoint x="336" y="-1617" as="targetPoint" />
          </mxGeometry>
        </mxCell>
        <mxCell id="sM-v2A3wkZq7hyRdQ6Ps-20" value="&lt;span style=&quot;border-color: var(--border-color); background-color: rgb(251, 251, 251); font-family: &amp;quot;Times New Roman&amp;quot;; color: rgb(55, 65, 81); font-weight: bold; font-size: 16pt;&quot;&gt;&lt;/span&gt;&lt;b style=&quot;border-color: var(--border-color); font-size: 12px; background-color: rgb(251, 251, 251);&quot;&gt;&lt;span style=&quot;border-color: var(--border-color); font-family: &amp;quot;Times New Roman&amp;quot;; letter-spacing: 0pt; font-size: 16pt;&quot;&gt;&amp;nbsp;log out&amp;nbsp;&lt;/span&gt;&lt;/b&gt;&lt;b style=&quot;border-color: var(--border-color); font-size: 12px; background-color: rgb(251, 251, 251);&quot;&gt;&lt;span style=&quot;border-color: var(--border-color); font-family: &amp;quot;Times New Roman&amp;quot;; letter-spacing: 0pt; font-size: 16pt;&quot;&gt;():&lt;/span&gt;&lt;/b&gt;" style="edgeLabel;html=1;align=center;verticalAlign=middle;resizable=0;points=[];" vertex="1" connectable="0" parent="sM-v2A3wkZq7hyRdQ6Ps-19">
          <mxGeometry x="-0.021" y="-1" relative="1" as="geometry">
            <mxPoint x="-6" y="-22" as="offset" />
          </mxGeometry>
        </mxCell>
        <mxCell id="sM-v2A3wkZq7hyRdQ6Ps-22" value="" style="endArrow=open;endFill=1;endSize=12;html=1;rounded=0;" edge="1" parent="1">
          <mxGeometry width="160" relative="1" as="geometry">
            <mxPoint x="352" y="-1607" as="sourcePoint" />
            <mxPoint x="619" y="-1607" as="targetPoint" />
          </mxGeometry>
        </mxCell>
        <mxCell id="sM-v2A3wkZq7hyRdQ6Ps-23" value="&lt;span style=&quot;border-color: var(--border-color); background-color: rgb(251, 251, 251); font-family: &amp;quot;Times New Roman&amp;quot;; color: rgb(55, 65, 81); font-weight: bold; font-size: 16pt;&quot;&gt;&lt;/span&gt;&lt;b style=&quot;border-color: var(--border-color); font-size: 12px; background-color: rgb(251, 251, 251);&quot;&gt;&lt;span style=&quot;border-color: var(--border-color); font-family: &amp;quot;Times New Roman&amp;quot;; letter-spacing: 0pt; font-size: 16pt;&quot;&gt;&amp;nbsp;log out&amp;nbsp;&lt;/span&gt;&lt;/b&gt;&lt;b style=&quot;border-color: var(--border-color); font-size: 12px; background-color: rgb(251, 251, 251);&quot;&gt;&lt;span style=&quot;border-color: var(--border-color); font-family: &amp;quot;Times New Roman&amp;quot;; letter-spacing: 0pt; font-size: 16pt;&quot;&gt;():&lt;/span&gt;&lt;/b&gt;" style="edgeLabel;html=1;align=center;verticalAlign=middle;resizable=0;points=[];" vertex="1" connectable="0" parent="sM-v2A3wkZq7hyRdQ6Ps-22">
          <mxGeometry x="-0.021" y="-1" relative="1" as="geometry">
            <mxPoint x="-6" y="-22" as="offset" />
          </mxGeometry>
        </mxCell>
      </root>
    </mxGraphModel>
  </diagram>
</mxfile>
